<?xml version="1.0" encoding="UTF-8"?>
<!DOCTYPE svg PUBLIC "-//W3C//DTD SVG 1.1//EN" "http://www.w3.org/Graphics/SVG/1.1/DTD/svg11.dtd">
<svg version="1.1" xmlns="http://www.w3.org/2000/svg" xmlns:xlink="http://www.w3.org/1999/xlink" x="0" y="0" width="1125" height="2436" viewBox="0, 0, 1125, 2436">
  <g id="Layer_1">
    <path d="M562,0 L1125,0 L1125,2436 L562,2436 L562,0 z" fill="#37C891" fill-opacity="0.95"/>
    <path d="M-1,0 L562,0 L562,2436 L-1,2436 L-1,0 z" fill="#37C891"/>
  </g>
  <g id="Layer_2">
    <path d="M652.512,2248.795 L696.014,2248.795 L696.014,2261.167 L666.6,2261.167 L666.6,2270.266 L690.2,2270.266 L690.2,2282.647 L666.6,2282.647 L666.6,2291.585 L696.014,2291.585 L696.014,2303.955 L652.512,2303.955 z" fill="#FFFFFF"/>
    <path d="M499.292,2248.795 L513.38,2248.795 L513.38,2291.585 L530.85,2291.585 L530.85,2303.955 L499.292,2303.955 z" fill="#FFFFFF"/>
    <path d="M477.69,2282.558 C475.576,2288.169 470.702,2292.74 464.352,2292.74 C455.757,2292.74 449.856,2284.371 449.856,2276.38 C449.856,2268.387 455.568,2260.017 464.352,2260.017 C470.846,2260.017 475.65,2264.592 477.723,2270.204 L492.386,2270.204 C489.548,2257.331 478.065,2247.662 464.352,2247.662 C448.517,2247.662 435.635,2260.546 435.635,2276.38 C435.635,2292.213 448.517,2305.097 464.352,2305.097 C478.065,2305.097 489.548,2295.431 492.386,2282.558 z" fill="#FFFFFF"/>
    <path d="M732.177,2276.538 L719.591,2276.538 L719.591,2261.132 L732.095,2261.132 C738.134,2261.132 741.382,2263.88 741.382,2268.925 C741.382,2273.852 737.97,2276.538 732.177,2276.538 M743.13,2284.58 C746.794,2283.341 750.226,2280.551 752.128,2277.845 C754.169,2274.937 755.14,2271.427 755.14,2267.415 L755.14,2267.256 C755.14,2264.601 754.788,2262.183 753.972,2260.039 C753.183,2257.973 752.107,2256.146 750.503,2254.583 L750.497,2254.594 L750.486,2254.639 C746.62,2250.688 740.726,2248.793 732.697,2248.793 L705.718,2248.793 L705.718,2303.953 L719.591,2303.953 L719.591,2287.089 L729.941,2287.089 L741.06,2303.953 L755.976,2303.953 z" fill="#FFFFFF"/>
    <path d="M631.208,2248.793 L618.733,2290.578 L606.282,2248.793 L591.385,2248.793 L609.706,2303.953 L627.78,2303.953 L646.104,2248.793 z" fill="#FFFFFF"/>
    <path d="M551.542,2305.266 C555.626,2305.266 559.279,2303.504 561.854,2300.729 C564.428,2303.504 568.078,2305.266 572.158,2305.266 C575.889,2305.266 579.25,2303.793 581.771,2301.432 L561.883,2281.547 C561.876,2281.56 561.861,2281.578 561.854,2281.588 C561.839,2281.578 561.831,2281.56 561.816,2281.547 L541.935,2301.432 C544.454,2303.793 547.818,2305.266 551.542,2305.266" fill="#FFFFFF"/>
    <path d="M541.935,2291.11 L561.816,2271.225 C561.809,2271.214 561.802,2271.202 561.787,2271.191 C561.809,2271.167 561.831,2271.141 561.853,2271.117 C561.876,2271.141 561.891,2271.167 561.913,2271.191 C561.905,2271.202 561.898,2271.214 561.883,2271.225 L581.771,2291.11 C584.524,2288.538 586.268,2284.902 586.268,2280.838 C586.268,2277.094 584.78,2273.715 582.402,2271.191 C584.78,2268.667 586.268,2265.288 586.268,2261.546 C586.268,2253.756 579.947,2247.439 572.158,2247.439 C568.078,2247.439 564.428,2249.201 561.853,2251.976 C559.279,2249.201 555.626,2247.439 551.542,2247.439 C543.752,2247.439 537.439,2253.756 537.439,2261.546 C537.439,2265.288 538.923,2268.667 541.301,2271.191 C538.923,2273.715 537.439,2277.094 537.439,2280.838 C537.439,2284.9 539.183,2288.538 541.935,2291.11" fill="#C2FFE7"/>
    <text transform="matrix(1, 0, 0, 1, 563.343, 769.952)">
      <tspan x="-158.781" y="-106" font-family="Helvetica-Bold" font-size="128" fill="#FFFFFF">FLAT</tspan>
      <tspan x="-334.375" y="47" font-family="Helvetica-Bold" font-size="128" fill="#FFFFFF">Messenger</tspan>
    </text>
  </g>
</svg>
